<?xml version="1.0" standalone="no"?>
<!DOCTYPE svg PUBLIC "-//W3C//DTD SVG 1.1//EN" "http://www.w3.org/Graphics/SVG/1.1/DTD/svg11.dtd" >
<!--
2013-9-30: Created.
-->
<svg>
<metadata>
Created by iconfont
</metadata>
<defs>

<font id="iconfont" horiz-adv-x="1024" >
  <font-face
    font-family="iconfont"
    font-weight="500"
    font-stretch="normal"
    units-per-em="1024"
    ascent="896"
    descent="-128"
  />
    <missing-glyph />
    
    <glyph glyph-name="x" unicode="x" horiz-adv-x="1001"
d="M281 543q-27 -1 -53 -1h-83q-18 0 -36.5 -6t-32.5 -18.5t-23 -32t-9 -45.5v-76h912v41q0 16 -0.5 30t-0.5 18q0 13 -5 29t-17 29.5t-31.5 22.5t-49.5 9h-133v-97h-438v97zM955 310v-52q0 -23 0.5 -52t0.5 -58t-10.5 -47.5t-26 -30t-33 -16t-31.5 -4.5q-14 -1 -29.5 -0.5
t-29.5 0.5h-32l-45 128h-439l-44 -128h-29h-34q-20 0 -45 1q-25 0 -41 9.5t-25.5 23t-13.5 29.5t-4 30v167h911zM163 247q-12 0 -21 -8.5t-9 -21.5t9 -21.5t21 -8.5q13 0 22 8.5t9 21.5t-9 21.5t-22 8.5zM316 123q-8 -26 -14 -48q-5 -19 -10.5 -37t-7.5 -25t-3 -15t1 -14.5
t9.5 -10.5t21.5 -4h37h67h81h80h64h36q23 0 34 12t2 38q-5 13 -9.5 30.5t-9.5 34.5q-5 19 -11 39h-368zM336 498v228q0 11 2.5 23t10 21.5t20.5 15.5t34 6h188q31 0 51.5 -14.5t20.5 -52.5v-227h-327z" />
    

    
    <glyph glyph-name="search" unicode="&#61442;" d="M997.519-168.561l-302.121 302.121c63.98 70.84 103.322 164.332 103.322 267.080 0 220.201-179.159 399.36-399.36 399.36s-399.36-179.159-399.36-399.36 179.159-399.36 399.36-399.36c102.748 0 196.239 39.342 267.080 103.322l302.121-302.121c3.994-3.994 9.236-6.001 14.479-6.001s10.486 2.007 14.479 6.001c8.008 8.008 8.008 20.951 0 28.959zM399.36 42.24c-197.612 0-358.4 160.788-358.4 358.4s160.788 358.4 358.4 358.4 358.4-160.788 358.4-358.4-160.788-358.4-358.4-358.4z"  horiz-adv-x="1024" />

    
    <glyph glyph-name="arrow-back" unicode="&#61700;" d="M736.156 705.137l-31.975 31.97-447.593-447.574 447.593-447.572 31.968 31.967-415.616 415.607 415.622 415.601z"  horiz-adv-x="1024" />

    
    <glyph glyph-name="150banben84" unicode="&#61463;" d="M511.999-121.6c-55.32 0-108.965 10.793-159.481 32.169-48.84 20.59-92.594 50.139-130.201 87.704-37.607 37.617-67.112 81.416-87.731 130.193-21.345 50.559-32.186 104.207-32.186 159.534 0 225.862 183.734 409.6 409.599 409.6 55.097 0 108.631-10.845 159.147-32.327 48.672-20.694 92.481-50.295 130.144-87.966 37.663-37.671 67.28-81.469 87.955-130.193 21.457-50.506 32.354-104.051 32.354-159.114 0-225.862-183.733-409.6-409.601-409.6v0zM831.242 422.49c-17.491 41.232-42.581 78.326-74.488 110.284-31.908 31.907-69.011 56.951-110.251 74.501-42.693 18.128-87.954 27.349-134.503 27.349-191.109 0-346.567-155.498-346.567-346.625 0-92.681 36.042-179.757 101.423-245.143 65.435-65.436 152.495-101.48 245.143-101.48 191.109 0 346.569 155.498 346.569 346.624-0 46.576-9.165 91.79-27.325 134.49v0zM780.447 257.090h-300.354v306.701c0 17.394 14.137 31.488 31.517 31.488 17.434 0 31.516-14.094 31.516-31.488v-243.675h237.322c17.435 0 31.517-14.093 31.517-31.54-0.001-17.393-14.083-31.486-31.518-31.486v0z"  horiz-adv-x="1024" />

    
    <glyph glyph-name="earth" unicode="&#61612;" d="M509.46 673.21c-211.746 0-383.425-171.483-383.425-383.018 0-211.52 171.679-383.003 383.425-383.003 211.761 0 383.425 171.483 383.425 383.003 0.001 211.536-171.664 383.018-383.425 383.018zM509.46-38.097c-181.508 0-328.637 146.976-328.637 328.289 0 181.311 147.129 328.298 328.637 328.298 181.507 0 328.652-146.987 328.652-328.298 0-181.312-147.145-328.289-328.652-328.289zM564.247 43.979c0 0 95.999 42.053 164.317 164.143 0 0-67.928 135.263-54.771 164.145 19.085 41.92-53.493 53.336-54.789 54.713 0 0-102.11-91.513-109.545-136.789-3.554-21.735 40.038-61.575 54.788-109.424 15.954-51.823 8.641-118.141-0-136.788zM509.46 372.269c0 0-221.831 31.067-246.485-27.356 0 0 47.367 123.934 164.332 191.509 0.001 0 108.871-103.781 82.153-164.153z"  horiz-adv-x="1024" />

    
    <glyph glyph-name="weibiaoti1" unicode="&#61505;" d="M512.512 543.536c-70.863 0-128.296-57.433-128.296-128.36s57.433-128.296 128.296-128.296c70.863 0 128.424 57.433 128.424 128.36s-57.56 128.296-128.424 128.296zM515.518 799.424c-213.933 0-387.254-173.321-387.254-387.19s385.207-636.235 385.207-636.235 383.288 422.366 383.288 636.235c0.064 213.869-167.437 387.19-381.242 387.19zM512.767-107.472c0 0-321.699 357.642-321.699 530.899s144.029 313.704 321.699 313.704c177.67 0 321.763-140.447 321.763-313.704s-321.763-530.899-321.763-530.899z"  horiz-adv-x="1024" />

    
    <glyph glyph-name="tel" unicode="&#61589;" d="M788.562-61.479c-30.911-4.507-74.421 4.438-82.529 6.53-324.677 75.417-547.021 292.821-624.347 611.668l-0.444 1.75-0.591 6.582c-7.073 30.857-8.38 77.881-8.602 91.807-1.479 89.539 62.423 157.844 158.698 172.178 24.765 3.687 64.88-0.32 64.88-0.32l129.489-212.893c11.868-19.469 12.362-43.599 1.27-62.972-17.29-30.241-42.577-55.157-73.101-71.991-5.532-3.056-9.279-9.981-5.903-16.265 54.789-102.256 138.5-185.5 239.080-245.747 4.992-2.99 13.508-0.607 16.403 4.609 12.747 22.963 33.567 41.405 55.823 55.922 19.335 12.618 45.644 13.383 66.323 2.070l224.109-122.171c0 0 2.734-25.411 2.833-31.82 1.579-94.491-68.75-175.136-163.389-188.935zM760.477-12.731l4.521-0.050c5.484 0.1 11.092 0.569 16.588 1.331 69.119 9.638 120.359 68.911 119.213 137.921-0.012 0.444-0.025 0.887-0.037 1.355l-200.619 109.379c-4.338 2.366-9.71 2.441-13.359 0.025-16.29-10.597-30.414-24.745-40.838-40.864-10.216-15.798-26.742-26.372-45.287-28.961v0c-14.010-1.944-27.874 0.74-40.099 7.789-109.799 63.216-199.166 155.074-258.415 265.636-16.156 30.092-4.596 67.036 26.298 84.14 22.303 12.274 40.763 30.464 53.421 52.645 1.983 3.45 1.737 8.181-0.617 12.027l-116.206 191.083c-1.763 0.025-3.537 0.050-5.311 0-7.492-0.148-14.836-0.714-22.009-1.724-70.624-9.833-115.566-57.401-114.517-121.136 0.444-26.568 2.674-62.23 7.628-82.738l0.444-1.772 0.591-6.459c73.014-298.438 281.681-501.942 587.749-573.122 6.789-1.922 32.631-5.792 40.863-6.506z"  horiz-adv-x="1024" />

    
    <glyph glyph-name="menu" unicode="&#61641;" d="M0 769.856h1024v-60.224h-1024v60.224zM0 316.416h1024v-60.224h-1024v60.224zM0-137.024h1024v-60.224h-1024v60.224z"  horiz-adv-x="1024" />

    
    <glyph glyph-name="bianjiicon" unicode="&#61771;" d="M511.98 735.659c247.297 0 447.67-200.443 447.67-447.651 0-247.296-200.373-447.666-447.67-447.666-247.187 0-447.632 200.371-447.632 447.666 0.001 247.208 200.446 447.651 447.632 447.651zM774.646 456.921c-0.291 2.878-0.583 5.776-0.874 8.636-1.385 13.478-7.505 25.026-15.011 35.865-9.105 13.060-19.89 24.647-32.715 34.174-10.054 7.504-21.494 11.456-33.807 12.95-0.802 0.111-1.494 0.4-2.187 0.602-3.351 0-6.63 0-9.946 0-0.546-0.165-1.093-0.421-1.64-0.491-9.508-1.184-18.289-4.373-25.502-10.567-11.512-9.962-22.66-20.438-33.954-30.693-0.073-0.108-0.073-0.346 0 0.037 37.306-37.308 74.392-74.411 111.588-111.589 0.111 0.074 0.474 0.346 0.839 0.656 9.981 9.655 20.255 19.072 29.91 29.055 3.788 3.897 6.96 8.741 9.144 13.713 2.186 4.919 2.842 10.567 4.154 15.905 0 0.58 0 1.199 0 1.748zM572.89 461.786c0.219 0.364-0.292-0.074-0.801-0.565-89.147-89.368-178.258-178.768-267.552-268.025-11.949-11.968-20.765-25.811-25.94-41.66-8.78-27.123-16.867-54.519-25.028-81.845-2.732-9.033-4.591-18.248-4.154-27.83 0.401-8.743 4.919-14.409 13.588-14.901 6.304-0.347 12.823 0.145 19.054 1.476 24.080 5.135 47.615 12.657 70.859 20.873 9.617 3.389 19.017 7.25 28.598 10.804 17.231 6.429 31.366 17.557 44.118 30.309 86.196 86.161 172.247 172.465 258.372 258.701 0.4 0.418 0.729 0.854 1.602 1.803-37.596 36.958-75.121 73.915-112.717 110.86z"  horiz-adv-x="1024" />

    
    <glyph glyph-name="type" unicode="&#61483;" d="M680.64 539.008c-22.976-23.104-22.976-60.608 0-83.712 23.104-23.104 60.608-23.104 83.776 0 23.104 23.040 23.104 60.544 0 83.712s-60.672 23.104-83.776 0zM930.496 706.368l-345.152 52.48-544.128-544.256 397.568-397.504 543.936 544.064-52.224 345.216zM438.976-98.944l-313.856 313.792 125.568 125.568 313.792-313.792-125.504-125.568zM606.4 68.48l-313.856 313.792 313.856 313.792 261.248-52.352 52.48-261.44-313.728-313.792z"  horiz-adv-x="1024" />

    
    <glyph glyph-name="star" unicode="&#61445;" d="M288.967856 273.497257l-65.045435-272.408203c-2.628874-10.918677 1.590218-22.334681 10.602476-28.975938 9.046027-6.618744 21.135366-7.263427 30.827099-1.51347L509.978459 115.86512300000004l244.515946-145.265478c4.414543-2.622734 9.353019-3.932566 14.264888-3.932566 5.840008 0 11.642155 1.814322 16.563234 5.41636 9.014304 6.646374 13.232372 18.060331 10.602476 28.975938L730.879568 273.470651l215.923748 182.991708c8.632611 7.283894 12.005428 19.065218 8.546653 29.815049-3.434216 10.749832-13.038968 18.374486-24.291243 19.291368L646.254192 529.08026 535.611256 787.329998c-4.386914 10.279111-14.491039 16.920368-25.66145 16.920368s-21.271466-6.641257-25.653263-16.920368L373.566626 529.08026l-284.718577-23.478737c-11.255345-0.925069-20.86112-8.54563-24.295336-19.297508-3.461845-10.749832-0.081864-22.532179 8.546653-29.814026L288.967856 273.497257 288.967856 273.497257zM394.894374 474.828658c10.304693 0.838088 19.296485 7.316639 23.369244 16.84055l91.686189 213.834156 91.579765-213.80755c4.072759-9.518794 13.060457-16.002462 23.363104-16.83441l234.358609-19.324114L681.65547 305.022251c-8.042163-6.789637-11.556197-17.534352-9.102309-27.78481l53.718459-224.88791L524.249487 172.37823200000003c-8.767688 5.245468-19.744693 5.245468-28.511357 0L293.608549 52.32087799999999l53.712319 224.916563c2.454912 10.251481-1.058099 20.996197-9.100262 27.78481L160.678004 455.53729 394.894374 474.828658 394.894374 474.828658zM394.894374 474.828658"  horiz-adv-x="1024" />

    
    <glyph glyph-name="forward" unicode="&#61701;" d="M269.009-176.873c5.609 0 11.241 2.071 15.628 6.237l482.781 458.636-482.758 458.612c-9.076 8.623-23.447 8.273-32.070-0.815s-8.262-23.447 0.815-32.070l448.151-425.728-448.175-425.751c-9.076-8.623-9.449-22.993-0.815-32.070 4.457-4.689 10.449-7.052 16.442-7.052z"  horiz-adv-x="1024" />

    
    <glyph glyph-name="iconfuzhi" unicode="&#61447;" d="M363.868753 295.71732799999995M512.851902-64.99299099999996L215.02375-64.99299099999996c-44.966121 0-84.409458 38.276768-84.409458 81.926918 0 99.942223 103.813391 247.438509 209.579249 297.758568 12.917194 6.169513 28.41926 0.664126 34.583656-12.283768 6.158257-12.942777 0.652869-28.426423-12.283768-34.58468-95.242178-45.308929-179.981141-178.034812-179.981141-250.89012 0-15.154141 16.10377-30.02892 32.511461-30.02892l297.827129 0c14.33038 0 25.947975-11.618619 25.947975-25.948999C538.799878-53.37334899999996 527.182282-64.99299099999996 512.851902-64.99299099999996zM661.836075 295.71732799999995M810.679032-64.99299099999996L512.851902-64.99299099999996c-14.33038 0-25.948999 11.618619-25.948999 25.947975 0 14.33038 11.618619 25.948999 25.948999 25.948999l297.827129 0c16.408715 0 32.511461 14.874779 32.511461 30.02892 0 72.854285-84.738963 205.580169-179.981141 250.89012-12.936637 6.158257-18.441001 21.640879-12.283768 34.58468 6.157233 12.935614 21.63474 18.453281 34.583656 12.283768 105.763812-50.320059 209.579249-197.816345 209.579249-297.758568C895.08849-26.715198999999984 855.646176-64.99299099999996 810.679032-64.99299099999996zM663.678026 295.71732799999995M516.741489 318.226994c-140.664693 0-255.103072 114.438379-255.103072 255.103072 0 140.659577 114.438379 255.096932 255.103072 255.096932 140.659577 0 255.096932-114.438379 255.096932-255.103072C771.838422 432.66435 657.401066 318.226994 516.741489 318.226994zM516.741489 776.529001c-112.048959 0-203.206098-91.157139-203.206098-203.199958 0-112.049982 91.157139-203.206098 203.206098-203.206098 112.042819 0 203.198935 91.156116 203.198935 203.198935C719.940424 685.372885 628.784308 776.529001 516.741489 776.529001zM663.678026 295.71732799999995M370.520243 560.3555670000001c-7.16519 0-12.974499 5.809309-12.974499 12.974499 0 87.779206 71.41654 159.188582 159.195745 159.188582 7.16519 0 12.975523-5.809309 12.975523-12.974499s-5.810333-12.974499-12.975523-12.974499c-73.474408 0-133.246747-59.772338-133.246747-133.240607C383.494743 566.164876 377.685433 560.3555670000001 370.520243 560.3555670000001zM525.015943 719.766207M397.438313 520.886647c0-7.240915-5.872754-13.113669-13.113669-13.113669-7.234775 0-13.107529 5.872754-13.107529 13.113669 0 7.234775 5.872754 13.107529 13.107529 13.107529C391.565559 533.995199 397.438313 528.122445 397.438313 520.886647z"  horiz-adv-x="1024" />

    
    <glyph glyph-name="quxiao" unicode="&#61453;" d="M958.709 768.39l-62.343 62.333-384.36-384.387-384.35 384.387-62.366-62.333 384.378-384.395-384.378-384.405 62.366-62.312 384.35 384.377 384.36-384.377 62.343 62.312-384.367 384.405z"  horiz-adv-x="1024" />

    
    <glyph glyph-name="mini-dui" unicode="&#61452;" d="M997.751 701.565c-15.742 17.647-42.004 18.558-58.576 1.741l-540.268-545.653-314.085 317.317c-16.654 16.736-42.834 15.989-58.576-1.657s-15.079-45.733 1.573-62.469l342.587-346.149c2.652-2.652 5.716-4.143 8.782-5.883 1.409-0.911 2.567-2.154 4.060-2.734 5.054-2.237 10.356-3.479 15.658-3.479s10.605 1.243 15.577 3.397c1.409 0.58 2.567 1.823 3.894 2.652 3.066 1.741 6.297 3.314 8.948 5.966l568.768 574.484c16.654 16.818 17.398 44.739 1.657 62.469z"  horiz-adv-x="1024" />

    
    <glyph glyph-name="diamond24" unicode="&#62373;" d="M974.293333 514.1759999999999l-148.437333 239.104c-2.816 4.522667-7.381333 7.125333-12.330667 8.576-1.578667 0.512-3.072 1.066667-4.736 1.237333-0.341333 0-0.682667 0.256-1.024 0.256L209.92 763.349333c-0.426667 0-0.810667-0.298667-1.237333-0.298667C206.122667 762.88 203.648 762.197333 201.216 761.088 200.576 760.832 199.936 760.746667 199.296 760.405333 199.168 760.3199999999999 198.997333 760.3199999999999 198.869333 760.234667c-2.773333-1.706667-4.864-3.968-6.570667-6.485333-0.085333-0.170667-0.341333-0.256-0.426667-0.426667l-149.76-239.104C41.856 513.9200000000001 41.984 513.5360000000001 41.813333 513.152c-1.749333-3.072-2.986667-6.442667-2.986667-10.24 0-0.384 0.213333-0.725333 0.213333-1.109333 0-0.682667 0.256-1.194667 0.384-1.877333 0.554667-3.797333 2.005333-7.253333 4.309333-10.112 0.213333-0.298667 0.170667-0.725333 0.426667-0.981333l450.645333-511.061333c4.053333-4.565333 9.856-7.253333 16-7.253333 5.077333-1.408 12.032 2.688 16.085333 7.338667l251.648 289.365333c7.765333 8.874667 6.784 22.357333-2.048 30.122667-8.874667 7.68-22.314667 6.784-30.122667-2.090667l-189.696-218.282667 120.917333 404.608 231.722667 0-85.290667-98.218667c-7.765333-8.874667-6.826667-22.357333 2.090667-30.122667 8.874667-7.722667 22.357333-6.826667 30.08 2.048l116.096 133.589333C978.432 495.957333 979.242667 506.197333 974.293333 514.1759999999999zM209.664 701.397333l107.648-177.152L98.688 524.2453330000001 209.664 701.397333zM357.333333 540.544L247.893333 720.682667l213.888 0L357.333333 540.544zM508.373333 716.074667l111.189333-191.829333L397.226667 524.2453330000001 508.373333 716.074667zM339.157333 481.578667l118.869333-397.653333-350.634667 397.653333L339.157333 481.578667zM383.701333 481.578667l249.386667 0-124.714667-417.152L383.701333 481.578667zM555.008 720.682667l213.930667 0-109.482667-180.138667L555.008 720.682667zM807.466667 701.9946669999999l110.336-177.749333-218.368 0L807.466667 701.9946669999999z"  horiz-adv-x="1024" />

    
    <glyph glyph-name="error" unicode="&#61527;" d="M512 896c-281.6 0-512-230.4-512-512s230.4-512 512-512 512 230.4 512 512-230.4 512-512 512zM761.6 179.2l-44.8-44.8-198.4 198.4-198.4-198.4-44.8 44.8 198.4 198.4-211.2 211.2 44.8 44.8 211.2-211.2 211.2 211.2 44.8-44.8-211.2-211.2 198.4-198.4z"  horiz-adv-x="1024" />

    
    <glyph glyph-name="duihuanchenggong" unicode="&#61528;" d="M874.642 21.939c-199.918-199.918-523.042-199.918-722.96 0-199.918 199.918-199.918 525.367-2.325 725.285 199.918 197.594 525.367 197.594 725.285 0 197.594-199.918 197.594-525.367 0-725.285zM828.15 584.499c-13.948 13.948-34.869 13.948-46.493 0l-348.695-348.695-162.724 162.724c-13.948 13.948-34.869 13.948-46.493 0-13.948-13.948-13.948-34.869 0-46.493l176.672-176.672c0 0 13.948-16.272 34.869-16.272 16.272 0 30.22 16.272 30.22 16.272l362.642 362.642c13.948 11.623 13.948 32.545-0 46.493z"  horiz-adv-x="1024" />

    
    <glyph glyph-name="zuoxuanzhuan" unicode="&#61666;" d="M138.41 87.25c1.375-5.5 5.475-10.95 9.585-15.075 108.1-132.725 292.85-190.225 463.9-128.625 216.225 76.65 329.8 316.125 251.8 533.685-78 217.6-316.125 331.175-535.075 253.175-5.475-1.35-12.31-4.1-17.785-6.825-8.21 21.875-15.050 42.4-21.885 60.2-8.21 23.275-13.7 41.050-16.435 46.525v0c-1.375 6.85-5.475 13.7-12.31 16.45-10.95 5.475-23.26 1.35-28.725-9.6v0-1.375l-9.585-20.5-65.695-139.595-8.2-20.525-8.21-16.425c-2.75-5.5-2.75-10.95-1.375-16.45 1.375-5.45 5.475-9.575 10.95-12.325l35.575-17.75 160.095-75.275h1.375c10.96-4.125 23.275 0 28.735 10.95 2.75 6.825 2.75 15.050-1.35 20.5v0c-1.375 5.5-8.21 23.275-16.425 46.575-5.475 16.4-12.335 35.55-19.16 54.7 5.475 2.75 12.325 4.125 17.8 6.875 176.525 62.925 372.21-28.75 435.16-205.3 62.95-176.485-28.75-372.185-205.275-435.16-140.95-50.65-294.21-2.75-381.8 109.475v0c-10.96 12.325-27.375 16.425-42.425 10.95-20.52-6.83-31.485-30.105-23.26-49.255z"  horiz-adv-x="1024" />

    
    <glyph glyph-name="youxuanzhuan" unicode="&#61470;" d="M862.325 136.5c-15.050 5.475-31.475 1.375-42.425-10.95v0c-87.6-112.225-240.85-160.125-381.8-109.475-176.525 62.975-268.225 258.675-205.275 435.165 62.95 176.55 258.635 268.225 435.15 205.3 5.475-2.75 12.325-4.125 17.8-6.875-6.825-19.15-13.675-38.3-19.15-54.7-8.225-23.3-15.050-41.075-16.425-46.575v0c-4.1-5.45-4.1-13.675-1.35-20.5 5.45-10.95 17.775-15.075 28.725-10.95v0h1.375l20.525 9.575 139.575 65.7 35.575 17.75c5.475 2.75 9.575 6.875 10.95 12.325 1.375 5.5 1.375 10.95-1.375 16.45l-8.2 16.425-8.2 20.525-65.7 139.6-9.575 20.5v1.375c-5.475 10.95-17.775 15.075-28.725 9.6-6.85-2.75-10.95-9.6-12.325-16.45v0c-2.725-5.475-8.225-23.25-16.425-46.525-6.85-17.8-13.675-38.325-21.9-60.2-5.475 2.725-12.3 5.475-17.775 6.825-218.95 78-457.075-35.575-535.075-253.175-78-217.56 35.575-457.035 251.8-533.685 171.050-61.6 355.8-4.1 463.9 128.625 4.1 4.125 8.2 9.575 9.575 15.075 8.225 19.145-2.725 42.42-23.25 49.245z"  horiz-adv-x="1024" />

    


  </font>
</defs>
</svg>
